<?xml version="1.0" encoding="UTF-8"?>
<svg id="Layer_1" xmlns="http://www.w3.org/2000/svg" viewBox="0 0 59.2 69">
  <defs>
    <style>
      .cls-1 {
        fill: #fff;
      }

      .cls-2 {
        fill: #ffab0b;
      }
    </style>
  </defs>
  <g>
    <g>
      <path class="cls-2" d="M32.05,52.01c-.09,0-.19,0-.28,0-.21,0-.42.01-.63.06-.17.04-.26-.04-.43-.06-.09,0-.16.02-.2.11-.02.07.05.18.02.23-.03.05,0-.02-.07-.01-.04,0-.06,0-.09.02-.07.03-.1.09-.07.17.08.17.33.21.49.16,0,0,0,0,0,0,0,.02.02.04.04.05.16.07.37-.05.51-.11.21-.09.4-.02.62-.05.11-.02.19-.08.16-.2,0-.02-.05-.09-.09-.12.02,0,.04,0,.05-.01.09-.06.06-.21-.06-.21Z"/>
      <path class="cls-2" d="M22.81,17.63s.04.02.06.02c.02,0,.03,0,.05,0,.34-.03.27-.46.16-.69-.05-.12-.15-.28-.29-.3-.06-.01-.13,0-.2,0-.06,0-.11-.01-.17,0-.42.02.04.54.12.66.08.12.13.28.26.33Z"/>
      <path class="cls-2" d="M24.23,3.41c.11.04.3.03.3,0h0c0,.11.05.28.17.31.1.03.26,0,.37,0,.05,0,.1-.04.11-.08.03-.14.05-.26,0-.36.04,0,.08,0,.11,0,.02.01.05.02.07.03-.04.04-.06.11-.09.17-.03.07,0,.14.07.17.1.04.23.06.31-.01,0,0,0,0,0,0,.02,0,.03-.02.04-.04.05-.09.05-.19.01-.28-.01-.03-.03-.05-.05-.07,0-.02,0-.03,0-.06,0-.01-.01-.02-.01-.03h0s0,0,0,0c0,0,0,.09,0,.08-.04-.15-.18.02-.28.02h0c-.07,0-.15-.17-.23-.2-.08-.03-.17-.09-.25-.05-.04.02-.1.07-.14.08-.04,0-.07.08-.09.11-.1,0-.21.07-.31.07h0s0-.07,0-.07c-.14.04-.31.14-.11.22Z"/>
      <path class="cls-2" d="M38.29,3.3c.02.05.06.08.11.08.27.03.55.05.83.07.22.03.45.17.67.09.09-.03.12-.16.03-.21-.25-.14-.5-.28-.76-.39-.29-.13-.56-.13-.88-.11-.07,0-.14.07-.11.14l.12.32Z"/>
      <path class="cls-2" d="M44.41,6.76c.16.1.32.19.49.29.01,0,.03.16.04.16,0,0,.02.15.02.15h0c.16,0,.39-.14.48-.29.11-.19.06-.49-.1-.62-.18-.15-.4-.31-.61-.43-.12-.07-.26-.21-.4-.25-.15-.05-.33.06-.33.22,0,.16.14.37.2.51.05.13.09.18.21.25Z"/>
      <path class="cls-2" d="M38.25,52.4c-.14-.01-.35-.08-.49-.02-.11.05-.17.17-.14.29.04.15.27.25.4.31.07.03.14.05.21.06.06,0,.1-.02.15-.03.09-.01.22.04.26-.09.04-.13-.12-.25-.16-.37-.04-.12-.1-.14-.23-.15Z"/>
      <path class="cls-2" d="M52.83,14.31c-.3-.51-1.49-2.82-2.29-1.54-.02.03-.02.06,0,.09-.07-.05-.16-.12-.25-.18,0-.01.02-.02.02-.04.15-.77-.13-.81-.48-1.5-.18-.36-.04-.59-.16-.9-.07-.17-.28-.33-.4-.46-.49-.52-1.02-1.01-1.55-1.5-.46-.43-.5-.36-1.13-.61-.09-.04-.19.09-.13.17.3.39.8.79,1.18,1.12.11.1.76.58.7.69-.02.04-.54-.11-.71-.11-.01,0-.02,0-.03,0-.05.01-.08.06-.08.11-.04.4.76.62.85,1.03,0,0,0,0,0,.01.12.83.73,1.47,1.45,1.86,0,.02,0,.03,0,.05.22.69.17,1.43.34,2.14.12.48.26.85-.05,1.3-.05.08.02.17.1.17.72.05.77.03,1.22.45.01.01.02.02.04.02-.02.05-.03.1-.04.15-.19.12-.41,0-.64-.08-.06-.02-.15.04-.14.11.03.22.39.75.1.76-.07,0-.13.07-.11.14.06.18.09.34.1.47h4c-.52-1.36-1.15-2.68-1.9-3.94ZM51.41,16.52s0-.01,0-.02c0,0,0,0,0,0,0,0,0,0-.01.01Z"/>
      <path class="cls-2" d="M22.18,35.87c.01.05.02.11.03.16,0,.05.03.1.08.11.65.15.65,1.13,1.04,1.55.22.24,1.89,1.4,2.15,1.09-.05.06-.04.14.02.18.15.09.2-.03.15.15-.02.06.02.12.08.14.9.34.99,1.93.42,2.68-.03.04-.01.1.02.14.6.75-.22,2.3-.21,3.14,0,.91.11,1.98-.59,2.7-.03.03-.04.07-.03.11.17.51.11,1.54-.18,2.04-.03.04-.02.1.02.14.14.13.28.1.45.06.05,0,.09-.06.08-.11-.02-.2.24-.76.11-.15-.02.09-.14.66-.17.57-.02-.05-.06-.08-.11-.08-.01,0-.02,0-.04,0-.05,0-.09.04-.11.08-.15.38-.63.33-.96.36-.12.01-.17.2-.03.22.16.03.91,0,.92.01.16.07.33-.12.1.1-.03.03-.04.07-.03.11.08.22.05-.02-.25.09-.06.02-.1.08-.08.14.02.05.03.08.05.12.01.02.03.04.05.06.02.03.08.04.11.03.02.01.04.03.05.04-.02,0-.03.01-.05.03-.02.02-.03.04-.04.06-.03,0-.05,0-.08,0-.07.02-.3.04-.38.05-.05,0-.25.06-.25.11v.09s.2.1.25.11c.1.02.27.04.37.05.05,0,.15.01.2,0,0,0,.03.05.04.05.02.04.06.13.09.13h.06s0-.1,0-.13c.11.07.31.07.43.08-.03,0-.05.01-.07.04-.05.09-.06.16-.06.26,0,.05.04.09.08.11.27.09.89.3.92.2-.01.05,0,.1.05.13.53.28,1.42.29,1.97.08.09-.04.11-.15.03-.21-.18-.12-1.6-.69-.68-.92.04-.01.07-.05.08-.09,0,0,0-.01,0-.02,0,.03.77-.83.82-.92.04-.08-.03-.2-.13-.17-.21.07-.08-.24.1-.28.05-.01.08-.06.08-.11,0-.16.32-.48.41-.58.04-.04.05-.12,0-.16-.99-.81.81-.31,1.04-.55.04-.04.04-.09.02-.14-.15-.33-.04-.56.06-.61.03-.01.59.06.65.06.33-.02.7-.13,1-.25.8-.32.88-.59.7-.99,0,0-.1-.29-.2-.42.32.08,1.25.19,1.42.13.41-.16,1.26-.98,1.52-1.31,0,0,.01-.02.02-.03.02.02.05.03.09.01.58-.24.7-.71,1.18-1.09.68-.54.38-.08.67-.97.41-1.25,2.16-1.78,3.33-1.91.05,0,.1-.03.11-.08.02-.11.06-.22.13-.34.07-.05.1-.11.14-.22.13-.18.29-.37.46-.56.11-.08.14-.12.19-.21.28-.31.55-.61.69-.86.25-.45.7-2.49.93-2.45.05,0,.1,0,.13-.05.09-.18.42-.61.78-1.14h-22.43ZM28.14,39.59s0,0,0,0c0,0,.02,0,.04-.01,0,.02.02.06.03.07,0,.02,0,.03.01.05,0,0,0-.01-.01-.02-.01-.02-.06-.06-.06-.09,0,0,0,0,0,0ZM26.72,38.01c.1.06.21.15.27.22,0,0,0,0,0,0,.04.1.1.21.21.31-.06-.06-.16-.03-.19.05,0,.04-.02.07-.04.09-.03-.03-.05-.05-.08-.09-.09-.15.05.07,0-.09,0,0-.08-.24-.09-.2.02-.05-.01-.1-.05-.13-.04-.02-.04-.09-.03-.16ZM26.59,38.61s0-.03.02-.04c0,.02.01.04.02.06-.02-.01-.04-.02-.04-.02h0ZM33.28,41.52h0s.02,0,.04,0c0,0,0,0,0,0h0s0,0,0,0c-.02,0-.04,0-.04,0ZM33.74,41.78h0s0-.02,0-.04c0,0,0,0,0,0,.03,0,.05,0,.08.01-.03.01-.06.03-.08.03ZM33.91,41.54s-.05,0-.09-.02c.02-.01.03-.02.05-.03.05-.02.03-.03.08,0,.01,0,.02.02.03.02-.02,0-.05.01-.08.01ZM39.32,40.64s0,0,0,0c0,0,0,0,.01,0,0,0,0,0-.01,0ZM35.93,27.15s.01,0,.01-.02c0,0,0,.01-.01.02ZM37.09,2.33c-.23-.36-.63-.35-1.03-.42-1.3-.24-2.61-.55-3.93-.67-1.25-.11-2.78-.12-4,.14-.76.05-1.55.23-2.3.31-.02,0-.08.04-.1.08-.02,0-.03-.01,0-.02-.19.06-.43.06-.65.17-.05.03-.07.11-.04.16.12.19.05.25-.11.3,0-.01.01-.03.02-.04.02-.06-.02-.13-.08-.14-.09-.02-.41.05-.59.1.06-.09.11-.23.11-.28,0-.06-.06-.12-.11-.11-.56.06-.81.42-1.31.63-.21.08-.54.08-.77.14.17-.05.34-.1.39-.12.08-.04.07-.16,0-.2-.43-.26-1.24,0-1.63.26-.05.03-.07.1-.04.16.05.09-.81.12-.79.19-.02-.05-.08-.1-.14-.08-2.54,1.01-5.92,2.43-7.56,4.72-.74,1.03-1.57,1.95-2.26,3.01-.22.33-.59.6-.76.95-.15.32-.24.84-.33,1.25h0c-.02.1-.04.19-.06.27-.01.04,0,.08.03.11.26.25.31,1.15.18,1.89-.01.05-.02.1-.04.15-.03.06-.03.1-.02.13-.08.33-.2.61-.36.73-.05.04-.07.09-.04.16.28.58.59,1.31.7,1.98,0,.01,0,.02.01.03.04.06.13.07.18.02,0,0,.01-.01.01-.02.18-.2.2-.4.16-.66,0-.04-.05-.07-.08-.08-.14-.03-.14-2.18-.12-2.41.03-.31.05-.51.07-.64.01-.02.02-.03.04-.05,0,.27-.02.9.02,1.16.11.68.34,1.35.54,2.02.05.18.16.42.24.66h3.35c.03-.26.08-.5.16-.71.32-.91.46-1.65,1.22-2.16.34-.23.65-.47,1.03-.52.11-.01.74.04,1.13.09.01,0,.02,0,.03,0,.14.02.25.04.27.06.04.04.09.04.14.02.02-.01.04-.02.05-.03.06-.03.07-.1.04-.16-.08-.17.01-.36-.1-.52,0,0,0,0-.01-.01.06.02.13.03.21.04.15.09.27.19.26.02,0,.04.02.08.06.1.22.11.98-.23.96.12,0,.04.02.08.06.1.28.15.77-.01.98.17.27.23.18.83.3,1.17.16.46.52,1.06,1.03.61.74-.64-.38-2.04.01-2.76.51-.93,1.99-1.07,2.75-1.72.03-.02.04-.08.03-.11-.17-.46-.03-.13.3-.26.08-.03.12-.16.03-.21-.22-.11-.14-.26-.23-.49-.04-.12-.08-.22-.11-.31.01-.06.04-.11.09-.16.03.1.04.19-.03.18-.09-.01.29.28.29.29.07.03.14,0,.17-.07.14-.37.51-.27.68-.81,0-.02,0-.03,0-.05.02.02.06,0,.11-.04.04-.02.09-.06.08-.11,0-.01,1.01-.09,1.18-.15.04-.01.07-.04.08-.08.01-.05.02-.1.03-.16.01-.05,0-.1-.05-.13-.51-.35,1.53-.83,1.58-.85.06-.02.09-.08.08-.14.01.07.38-.15.59-.26.04-.01.08-.03.13-.04-.03.03-.03.07-.02.1-.14.02-.32.05-.4.13-.1.08-.29.36-.25.51.15.56,1.09.02.97-.16.03.04.08.07.13.05.34-.13.71-.18,1.06-.29.06-.02.1-.08.08-.14,0-.01-.01-.02-.02-.03.03,0,.07,0,.1-.02.02,0,.04-.03.06-.04.03.03.06.05.1.05.04,0,.08-.02.11-.04.07-.03.16-.03.22-.08.07-.05.12-.18.05-.25-.04-.04-.1-.04-.15-.05-.04,0-.11-.05-.11-.03-.01-.05,0-.12,0-.17,0-.08-.01-.18-.05-.25,0,0,0,0,0,0,0,0,0,0,0,.01.19.2.81.05,1.07.06.04,0,.13-.02.15-.02.06.02.11.09.16.12-.03.04-.03.11.01.15.01.01.02.03.04.04.01.01.03.02.04.03.26.19.36,0,.61-.14.04-.02.09-.05.13-.07,0,.03.01.07.01.1,0,.02,0,.03,0,.05,0,0,0,0,0,0,0,0,0,0,0,0,0,.02.02.03.03.05.02.02.05.04.08.04.02,0,.04,0,.06-.02.01.05.04.11.07.13.03.03.07.04.11.03.1-.03.23-.04.3-.12.09-.1.15-.19.18-.32.02-.11,0-.26-.11-.31-.08-.03-.17,0-.25.05,0-.02,0-.04,0-.06,0-.09-.09-.13-.17-.1-.05-.04-.11-.07-.15-.11.02,0,.04,0,.06,0,.04-.01.07-.02.11-.04.04-.02.07-.09.05-.13-.08-.2-.65-.37-.87-.31-.04.01-.09.05-.13.06,0,0,0,0-.01.01-.05-.03-.15-.07-.16-.07-.21-.06-.23,0-.08-.16.06-.06.18-.16.2-.25.04-.17-.06-.24-.19-.27.02-.02.03-.04.05-.07.03-.05.02-.13-.04-.16.09.04-.5-.6-.46-.44-.01-.05-.06-.08-.11-.08-.04,0-.07,0-.11,0,0-.03,0-.06-.03-.09-.04-.03-.07-.06-.1-.11-.03-.05-.08-.06-.13-.05-.22.04-.9-.17-1.07-.29-.17-.13-.02-.17-.15-.28-.34-.27-.75-.51-1.12-.79-.08-.06-.16.02-.17.1-.03.28-.14.43-.28.49-.03,0-.07.02-.11.03-.32.04-.7-.29-.69-.72,0-.02,0-.04-.02-.06.38.02.8,0,1.14-.05.07-.01.09-.07.07-.13.12-.04.31-.09.32-.24,0-.04,0-.08-.02-.11.19-.04.3-.12.53-.28.07-.05.08-.16,0-.2-.29-.15-.74-.16-1.06-.16-.19,0-.3,0-.35.02.05-.02.13-.07.2-.17.02-.03.02-.07,0-.1-.02-.04-.06-.07-.11-.07-.3-.01-.62-.01-.91-.07-.55-.11-.35-.08.12-.25.58.04,1.09.05,1.65.07.5.03.94.05,1.39.08.02,0,.04.02.07.02.08.03.13.05.18.06-.02.06,0,.14.07.16,0,0,0,0,0,0-.01,0-.02,0-.04.01-.02,0-.03.02-.04.03-.04.06,0,.15.07.18.13.04.44.03.61.05-.08,0-.15.06-.19.19-.01.05,0,.11.05.13,1.24.66,2.32,1.4,3.79,1.41.09,0,.13-.1.1-.17-.28-.66-.49-.94.41-.97,0,0,.02,0,.03,0,.1,0,.15-.12.08-.19-.02-.02-.04-.04-.06-.05.03,0,.06-.01.1-.03.2-.08.41,0,.61-.1.05-.03.07-.11.04-.16ZM29.51,7.64s0,0,0,0c0,0,.02-.03.04-.06-.02.03-.03.05-.04.06ZM32.25,6.06s-.02.02-.03.04c-.04-.01-.07-.02-.1-.03.05,0,.1,0,.13,0ZM29.01,6.63c.2-.06.49-.01.69,0,.4.01.86.14,1.26.07.41-.07.78-.27,1.17-.43-.04.09-.07.18-.11.26-.09.14-.17.28-.25.43-.02.03-.02.06,0,.09-.03,0-.05,0-.08-.01-.05-.03-.11-.04-.18,0-.09.04-.06.18.03.21,0,0,0,0,.01,0-.05.02-.1.05-.15.08-.05.04-.07.1-.04.15-.06-.08-.16-.08-.22,0,0,0-.03.05-.03.08-.02.01-.04.04-.05.05-.07.07-.16.13-.21.21-.05.07-.08.18-.08.29,0,0-.02-.01-.03-.02-.06-.05-.14-.04-.18.02-.19.27-.86-.36-.89-.52,0-.03-.03-.06-.06-.07.02-.03.05-.06.08-.1.03-.04.04-.09.02-.13.1-.03.2-.06.3-.11.06-.03.08-.14.02-.18-.33-.27-.74-.29-1.15-.21.04-.07.08-.13.13-.15ZM27.51,1.58s-.09.03-.13.04c-.02,0-.04,0-.06.02.07-.02.13-.04.19-.06ZM18.24,4.13s0,0,0,0c-.09.07-.19.14-.3.2,0,0,0,0-.01,0,.1-.06.2-.13.31-.2ZM10,14.76c0-.08,0-.17,0-.24.01.03.02.05.02.08.01.07,0,.12-.03.16ZM18.92,6.07c-.02-.08-.05-.16-.05-.24,0-.07.02-.05.08-.07,0,0,0,0,0,0,.01.11,0,.21-.03.32ZM18.95,4.87s.01-.04.02-.06c.01-.05.02-.09.03-.14,0,0,0-.01,0-.02,0,0,0,0,.01,0,0,0,.01-.01.02-.02.02.03.04.06.06.09-.03.03-.06.06-.08.09-.02.02-.04.04-.06.06ZM19.08,7s-.03-.02-.04-.03c.01,0,.03-.01.04-.02,0,0,0,0,0,0,0,0,.01.03.02.04,0,0-.01,0-.02,0ZM20.94,8.48c-.23.18-.16.25-.23.48-.26.83-.38.43-.24-.11.14-.53.51-.71,1.01-.75-.21.11-.4.28-.53.38ZM21.87,7.81c-.12-.16-.24-.15-.46-.16-.04,0-.17.07-.23.07-.14-.02-.14-.08-.21-.09-.08,0-1.02.02-1.28.02.46-.17.95-.37,1.42-.46.22-.04.35-.11.56.08.12.11.18.33.21.43.01.05,0,.08-.01.1ZM20.93,6.75c.05-.06.09-.13.11-.18h0c.03.06.06.12.07.18-.03,0-.06,0-.08,0-.04,0-.07,0-.11,0ZM22.63,9.43c-.13.07-.22.16-.37.18-.28.04-.05.07-.11-.29,0,.05.06.08.11.08.08,0,.27,0,.48-.03-.04.02-.07.03-.11.05ZM23.05,8.28c-.23,0-.29.18-.41.34-.06.08-.14.16-.2.24-.04.05-.06.08-.07.1-.02-.06-.03-.24-.06-.3-.02-.03-.06-.06-.1-.06-.01,0-.02,0-.03,0,.05-.06.08-.11.09-.12.04-.18-.01-.29-.14-.4.23.02.53-.1.69-.09.17.01.38.05.49.2.26.36-.15.08-.26.08ZM23.76,8.91c-.12.03-.25.08-.26.19,0,0,0,0-.01,0,.02-.04.04-.18.04-.18-.03.03,0-.01.02-.04,0,.02.14,0,.21,0,.03,0,.06,0,.09.01-.03,0-.06,0-.09.01ZM24.15,7.07h-.04s-.04-.03-.06-.07c.03.01.06.02.1.03.06,0,.12,0,.17-.02-.03.03-.06.06-.09.06h-.07ZM24.27,8.9s.02,0,.03,0c.22-.07.26-.17.39-.16-.11.14-.26.17-.42.17ZM25.45,5.45s0,0,0,0c0-.01-.01-.03-.02-.04,0,0,0,0,0,0,.03,0,.06-.02.08-.02-.02.02-.03.05-.05.07ZM26.39,6.3c-.02.07-.04.13-.07.19,0,0,0,.01-.01.02-.03-.03-.06-.07-.1-.1.03-.02.07-.04.1-.06,0,0,0,0,0,0,0,0,.01,0,.02,0,0,0,0,0,0,0,0,0,.01,0,.02-.01,0-.01.02-.02.03-.02h0ZM26,3.22c-.06.01-.09.08-.08.14.06.2-.68.61-.66.6-.1.03-.11.16-.03.21.98.58.18.73-.61.82-.1.01-.14.11-.08.19.2.26-.1,1.55-.4,1.62-.1.02-.28-1.47-.33-1.38.04-.16.2-.28.2-.46,0-.08-.08-.13-.14-.11-.67.17-1.12-.27-1.69-.35,0,0,0,0,.01,0-.03,0-.62-.09-.83-.03.02-.13.02-.32.01-.32.17-.38.76-.55,1.2-.68.47-.14,1.01-.1,1.46-.29.4-.17.59-.33.97-.45.34-.1.7-.11,1.02-.32.06-.04.07-.1.04-.16.01.02.19,0,.39-.02.09.04.17.07.21.07.05,0,.1-.02.1-.04v.02s.01.04.02.06c-.03,0-.05.02-.05.02-.08.03-.12.13-.05.19.02.02.04.03.07.05-.18.05-.35.1-.52.14-.09.02-.11.13-.05.19.14.16.26.11.48.17.05.01.11.03.17.04-.28,0-.57,0-.85.06ZM27.62,3.34c.07.01.13.03.18.03.07.01.15.02.23.03-.19.17-.28.05-.41-.06ZM27.79,1.51s-.04,0-.06.01c.08-.02.11-.03.06-.01ZM31.68,1.94s.03,0,.04.01c-.02,0-.03,0-.05,0,0,0,0-.01.01-.02Z"/>
    </g>
    <path class="cls-2" d="M3.43,18.68c1.23-5.08,4.52-9.77,8.97-13.06,9.12-6.89,22.36-7.5,32.22-1.53,0,0,.47.29.47.29l.23.14c.27.17.64.44.9.61.49.35,1.05.77,1.51,1.15.26.2.57.48.82.69.4.35.8.72,1.17,1.1,2.98,2.98,5.17,6.69,6.12,10.61-.99-2.49-2.36-4.84-4.1-6.94-1.34-1.64-2.91-3.11-4.63-4.42-2.82-2.1-6.1-3.74-9.6-4.69-4.92-1.38-10.3-1.43-15.25-.14C13.49,4.73,6.46,10.89,3.43,18.68h0Z"/>
    <path class="cls-2" d="M2.82,34.86c1.26,5.66,4.63,10.89,9.17,14.56,9.33,7.67,22.88,8.36,32.97,1.7,0,0,.48-.32.48-.32l.24-.16c.27-.19.66-.49.93-.68.5-.39,1.07-.85,1.55-1.28.27-.22.59-.54.84-.77.41-.39.82-.8,1.2-1.22,3.05-3.33,5.3-7.46,6.26-11.82-1.02,2.78-2.42,5.4-4.19,7.73-1.37,1.83-2.98,3.47-4.74,4.93-2.89,2.34-6.24,4.17-9.82,5.22-5.04,1.54-10.54,1.59-15.6.16-8.98-2.48-16.17-9.35-19.28-18.04h0Z"/>
    <g>
      <path class="cls-1" d="M15.36,20.2v13.16h-3.66v-7.26l-2.48,7.26h-3.06l-2.5-7.32v7.32H0v-13.16h4.42l3.3,8.55,3.23-8.55h4.41Z"/>
      <path class="cls-2" d="M26.29,31.21h-4.67l-.71,2.15h-3.85l4.8-13.16h4.22l4.78,13.16h-3.86l-.71-2.15ZM25.38,28.41l-1.42-4.26-1.4,4.26h2.82Z"/>
      <path class="cls-1" d="M41.25,33.36l-2.56-3.71-2.18,3.71h-4.16l4.27-6.74-4.42-6.42h4.31l2.48,3.62,2.13-3.62h4.16l-4.22,6.63,4.5,6.53h-4.31Z"/>
      <path class="cls-1" d="M54.09,25.37v3.04h-8.46v-3.04h8.46Z"/>
      <path class="cls-2" d="M59.2,20.2v13.16h-3.66v-13.16h3.66Z"/>
    </g>
  </g>
  <g>
    <path class="cls-1" d="M3.14,59.37c.35.18.61.43.8.76s.28.71.28,1.15-.09.81-.28,1.14-.46.58-.8.76c-.35.18-.75.27-1.2.27H.43v-4.33h1.52c.46,0,.86.09,1.2.27ZM2.97,62.33c.25-.25.37-.6.37-1.05s-.12-.8-.37-1.06c-.25-.25-.6-.38-1.05-.38h-.61v2.86h.61c.46,0,.81-.12,1.05-.37Z"/>
    <path class="cls-1" d="M5.75,59.1v4.33h-.87v-4.33h.87Z"/>
    <path class="cls-1" d="M9.62,60.41c-.1-.18-.24-.32-.41-.42-.17-.1-.38-.14-.61-.14-.26,0-.48.06-.68.17-.2.12-.35.28-.47.5-.11.22-.17.46-.17.74s.06.54.17.76.27.38.48.5c.2.12.44.17.71.17.33,0,.6-.09.81-.26.21-.18.35-.42.42-.74h-1.49v-.66h2.35v.76c-.06.3-.18.58-.37.84s-.44.46-.74.62c-.3.16-.64.23-1.01.23-.42,0-.8-.09-1.13-.28-.34-.19-.6-.45-.8-.79s-.29-.72-.29-1.14.1-.81.29-1.15c.19-.34.46-.6.8-.79.34-.19.71-.28,1.13-.28.49,0,.91.12,1.27.36.36.24.61.57.74,1h-1Z"/>
    <path class="cls-1" d="M12.24,59.1v4.33h-.87v-4.33h.87Z"/>
    <path class="cls-1" d="M16.05,59.1v.7h-1.16v3.63h-.87v-3.63h-1.16v-.7h3.18Z"/>
    <path class="cls-1" d="M19.34,62.61h-1.73l-.29.83h-.91l1.56-4.34h1.01l1.56,4.34h-.92l-.29-.83ZM19.11,61.92l-.63-1.81-.63,1.81h1.25Z"/>
    <path class="cls-1" d="M22,62.75h1.43v.69h-2.3v-4.33h.87v3.65Z"/>
    <path class="cls-1" d="M26.14,63.33c-.24-.1-.43-.25-.57-.45-.14-.19-.21-.43-.22-.69h.93c.01.18.08.32.19.42.11.1.27.16.47.16s.36-.05.48-.15c.12-.1.17-.22.17-.38,0-.13-.04-.23-.12-.32-.08-.08-.18-.15-.3-.2-.12-.05-.28-.1-.49-.16-.28-.08-.51-.16-.69-.25-.18-.08-.33-.2-.45-.37s-.19-.38-.19-.65c0-.26.06-.48.19-.67s.31-.34.54-.44c.23-.1.5-.15.79-.15.45,0,.81.11,1.09.33.28.22.43.52.46.91h-.96c0-.15-.07-.27-.19-.37s-.27-.15-.47-.15c-.17,0-.31.04-.41.13s-.15.21-.15.38c0,.12.04.21.12.29s.17.14.29.19c.11.05.27.1.48.16.28.08.51.17.69.25.18.08.33.21.46.37s.19.38.19.65c0,.23-.06.45-.18.65-.12.2-.3.36-.53.48s-.51.18-.83.18-.57-.05-.82-.15Z"/>
    <path class="cls-1" d="M30.13,63.2c-.34-.19-.61-.45-.81-.79-.2-.34-.3-.72-.3-1.15s.1-.8.3-1.14c.2-.34.47-.6.81-.79.34-.19.71-.29,1.12-.29s.78.1,1.12.29.6.45.8.79c.2.34.29.72.29,1.14s-.1.81-.29,1.15c-.2.34-.47.6-.8.79-.34.19-.71.29-1.12.29s-.78-.1-1.12-.29ZM31.94,62.53c.2-.12.35-.29.47-.51s.17-.47.17-.76-.06-.54-.17-.76c-.11-.22-.27-.38-.47-.5-.2-.12-.43-.17-.69-.17s-.49.06-.69.17c-.2.12-.36.28-.47.5-.11.22-.17.47-.17.76s.06.54.17.76.27.39.47.51c.2.12.43.18.69.18s.49-.06.69-.18Z"/>
    <path class="cls-1" d="M34.98,62.75h1.43v.69h-2.3v-4.33h.87v3.65Z"/>
    <path class="cls-1" d="M37.82,59.1v2.68c0,.29.08.52.23.67.15.15.37.23.65.23s.5-.08.65-.23c.15-.16.23-.38.23-.67v-2.68h.88v2.68c0,.37-.08.68-.24.94-.16.25-.37.45-.64.57-.27.13-.56.19-.89.19s-.62-.06-.88-.19c-.26-.13-.47-.32-.62-.57-.15-.25-.23-.57-.23-.94v-2.68h.87Z"/>
    <path class="cls-1" d="M44.24,59.1v.7h-1.16v3.63h-.87v-3.63h-1.16v-.7h3.18Z"/>
    <path class="cls-1" d="M45.74,59.1v4.33h-.87v-4.33h.87Z"/>
    <path class="cls-1" d="M47.5,63.2c-.34-.19-.61-.45-.81-.79-.2-.34-.3-.72-.3-1.15s.1-.8.3-1.14c.2-.34.47-.6.81-.79.34-.19.71-.29,1.12-.29s.78.1,1.12.29c.34.19.6.45.8.79.2.34.29.72.29,1.14s-.1.81-.29,1.15c-.2.34-.47.6-.8.79-.34.19-.71.29-1.12.29s-.78-.1-1.12-.29ZM49.3,62.53c.2-.12.35-.29.47-.51.11-.22.17-.47.17-.76s-.06-.54-.17-.76c-.11-.22-.27-.38-.47-.5-.2-.12-.43-.17-.69-.17s-.49.06-.69.17c-.2.12-.36.28-.47.5-.11.22-.17.47-.17.76s.06.54.17.76c.11.22.27.39.47.51.2.12.43.18.69.18s.49-.06.69-.18Z"/>
    <path class="cls-1" d="M55.18,63.44h-.87l-1.97-2.97v2.97h-.87v-4.34h.87l1.97,2.98v-2.98h.87v4.34Z"/>
    <path class="cls-1" d="M56.72,63.33c-.24-.1-.43-.25-.57-.45-.14-.19-.21-.43-.22-.69h.93c.01.18.08.32.19.42.11.1.27.16.47.16s.36-.05.48-.15.17-.22.17-.38c0-.13-.04-.23-.12-.32-.08-.08-.18-.15-.29-.2-.12-.05-.28-.1-.49-.16-.28-.08-.51-.16-.69-.25-.18-.08-.33-.2-.45-.37s-.19-.38-.19-.65c0-.26.06-.48.19-.67s.31-.34.54-.44.5-.15.8-.15c.45,0,.81.11,1.09.33.28.22.43.52.46.91h-.96c0-.15-.07-.27-.19-.37-.12-.1-.27-.15-.47-.15-.17,0-.31.04-.41.13s-.15.21-.15.38c0,.12.04.21.12.29.08.08.17.14.29.19.11.05.27.1.48.16.28.08.51.17.69.25.18.08.33.21.46.37.13.17.19.38.19.65,0,.23-.06.45-.18.65s-.3.36-.53.48c-.23.12-.51.18-.83.18s-.57-.05-.82-.15Z"/>
  </g>
  <g>
    <path class="cls-2" d="M1.96,67.28c.08.07.15.15.2.24.05.1.07.2.07.31,0,.14-.04.27-.11.38s-.17.2-.31.26c-.14.07-.3.1-.48.1H.3v-2.76h.99c.19,0,.35.03.48.09.13.06.23.15.3.25.07.11.1.22.1.36,0,.16-.04.3-.13.41-.09.11-.2.18-.35.23.1.02.19.06.27.12ZM.67,67.01h.61c.17,0,.3-.04.39-.12s.14-.19.14-.33-.05-.25-.14-.33-.23-.12-.4-.12h-.6v.9ZM1.72,68.16c.1-.08.15-.2.15-.35s-.05-.27-.16-.36c-.11-.09-.25-.13-.42-.13h-.63v.97h.64c.18,0,.32-.04.42-.13Z"/>
    <path class="cls-2" d="M4.19,68.58l-.66-1.13h-.44v1.13h-.36v-2.76h.89c.21,0,.39.04.53.11.14.07.25.17.32.29s.11.26.11.42c0,.19-.06.36-.16.5-.11.15-.27.24-.49.29l.69,1.16h-.43ZM3.09,67.16h.53c.2,0,.34-.05.44-.14.1-.1.15-.23.15-.39s-.05-.29-.15-.38c-.1-.09-.24-.14-.44-.14h-.53v1.05Z"/>
    <path class="cls-2" d="M6.77,67.97h-1.2l-.22.61h-.38l1-2.74h.42l.99,2.74h-.38l-.22-.61ZM6.67,67.67l-.5-1.39-.5,1.39h1Z"/>
    <path class="cls-2" d="M9.98,68.58h-.36l-1.45-2.2v2.2h-.36v-2.76h.36l1.45,2.19v-2.19h.36v2.76Z"/>
    <path class="cls-2" d="M12.23,65.99c.22.11.39.27.51.48s.18.45.18.74-.06.53-.18.73-.29.37-.51.48c-.22.11-.48.16-.78.16h-.86v-2.76h.86c.3,0,.56.06.78.17ZM12.27,68c.19-.19.28-.45.28-.79s-.09-.61-.28-.8-.46-.29-.81-.29h-.5v2.17h.5c.36,0,.63-.09.82-.28Z"/>
    <path class="cls-2" d="M13.75,65.82v2.76h-.36v-2.76h.36Z"/>
    <path class="cls-2" d="M16.54,68.58h-.36l-1.45-2.2v2.2h-.36v-2.76h.36l1.45,2.19v-2.19h.36v2.76Z"/>
    <path class="cls-2" d="M19.24,66.62c-.08-.16-.19-.29-.33-.37-.14-.09-.31-.13-.51-.13s-.37.05-.52.13-.28.21-.36.38c-.09.16-.13.36-.13.57s.04.41.13.57c.09.16.21.29.36.38.15.09.33.13.52.13.27,0,.49-.08.66-.24.17-.16.28-.38.31-.65h-1.1v-.29h1.48v.28c-.02.23-.09.44-.21.62-.12.19-.28.34-.48.45-.2.11-.42.16-.66.16-.26,0-.49-.06-.7-.18-.21-.12-.38-.29-.5-.5-.12-.21-.18-.46-.18-.72s.06-.51.18-.73c.12-.22.29-.38.5-.5.21-.12.45-.18.7-.18.29,0,.55.07.78.22s.39.35.49.61h-.43Z"/>
    <path class="cls-2" d="M21.74,69h-.36v-3.57h.36v3.57Z"/>
    <path class="cls-2" d="M26.3,65.84v2.74h-.36v-2.04l-.91,2.04h-.25l-.92-2.05v2.05h-.36v-2.74h.39l1.01,2.27,1.01-2.27h.38Z"/>
    <path class="cls-2" d="M28.54,67.97h-1.2l-.22.61h-.38l1-2.74h.42l.99,2.74h-.38l-.22-.61ZM28.44,67.67l-.5-1.39-.5,1.39h1Z"/>
    <path class="cls-2" d="M31.03,68.58l-.66-1.13h-.44v1.13h-.36v-2.76h.89c.21,0,.39.04.53.11.14.07.25.17.32.29.07.12.11.26.11.42,0,.19-.06.36-.17.5-.11.15-.27.24-.49.29l.69,1.16h-.43ZM29.94,67.16h.53c.2,0,.34-.05.44-.14.1-.1.15-.23.15-.39s-.05-.29-.15-.38c-.1-.09-.24-.14-.44-.14h-.53v1.05Z"/>
    <path class="cls-2" d="M33.48,68.58l-1.14-1.26v1.26h-.36v-2.76h.36v1.28l1.14-1.28h.46l-1.25,1.38,1.26,1.38h-.47Z"/>
    <path class="cls-2" d="M34.72,66.11v.92h1.01v.3h-1.01v.95h1.12v.3h-1.48v-2.76h1.48v.3h-1.12Z"/>
    <path class="cls-2" d="M38.09,65.82v.29h-.75v2.47h-.36v-2.47h-.76v-.29h1.87Z"/>
    <path class="cls-2" d="M38.89,65.82v2.76h-.36v-2.76h.36Z"/>
    <path class="cls-2" d="M41.68,68.58h-.36l-1.45-2.2v2.2h-.36v-2.76h.36l1.45,2.19v-2.19h.36v2.76Z"/>
    <path class="cls-2" d="M44.38,66.62c-.08-.16-.19-.29-.33-.37s-.31-.13-.51-.13-.37.05-.52.13-.28.21-.36.38c-.09.16-.13.36-.13.57s.04.41.13.57c.09.16.21.29.36.38.15.09.33.13.52.13.27,0,.49-.08.67-.24s.28-.38.3-.65h-1.1v-.29h1.48v.28c-.02.23-.09.44-.21.62-.12.19-.28.34-.48.45-.2.11-.42.16-.66.16-.26,0-.49-.06-.7-.18s-.38-.29-.5-.5c-.12-.21-.18-.46-.18-.72s.06-.51.18-.73c.12-.22.29-.38.5-.5s.45-.18.7-.18c.29,0,.55.07.78.22s.39.35.49.61h-.43Z"/>
    <path class="cls-2" d="M46.88,69h-.36v-3.57h.36v3.57Z"/>
    <path class="cls-2" d="M49.02,68.51c-.14-.07-.26-.15-.34-.27-.08-.11-.12-.25-.13-.4h.38c.01.13.07.24.16.33.09.09.23.13.41.13s.31-.04.41-.13c.1-.09.15-.2.15-.33,0-.11-.03-.19-.09-.26-.06-.07-.13-.12-.22-.15-.09-.04-.2-.07-.35-.11-.18-.05-.33-.1-.44-.14-.11-.05-.2-.12-.28-.22-.08-.1-.12-.24-.12-.41,0-.15.04-.28.11-.4.08-.12.18-.21.32-.27.14-.06.3-.09.48-.09.26,0,.47.06.64.19.17.13.26.3.28.52h-.4c-.01-.11-.07-.2-.17-.28-.1-.08-.23-.12-.39-.12-.15,0-.27.04-.37.12-.09.08-.14.19-.14.33,0,.1.03.18.09.25.06.06.13.11.21.14.08.03.2.07.35.11.18.05.33.1.44.15.11.05.21.12.29.23s.12.24.12.41c0,.13-.04.26-.11.38-.07.12-.18.21-.32.29-.14.07-.3.11-.5.11s-.34-.03-.49-.1Z"/>
    <path class="cls-2" d="M52.59,67.97h-1.2l-.22.61h-.38l1-2.74h.42l.99,2.74h-.38l-.22-.61ZM52.49,67.67l-.5-1.39-.5,1.39h1Z"/>
    <path class="cls-2" d="M53.99,68.29h.97v.29h-1.33v-2.76h.36v2.47Z"/>
    <path class="cls-2" d="M55.7,66.11v.92h1.01v.3h-1.01v.95h1.12v.3h-1.48v-2.76h1.48v.3h-1.12Z"/>
    <path class="cls-2" d="M57.76,68.51c-.14-.07-.26-.15-.34-.27-.08-.11-.12-.25-.13-.4h.38c.01.13.07.24.16.33.09.09.23.13.41.13s.31-.04.41-.13c.1-.09.15-.2.15-.33,0-.11-.03-.19-.09-.26-.06-.07-.13-.12-.22-.15-.09-.04-.2-.07-.35-.11-.18-.05-.33-.1-.44-.14-.11-.05-.2-.12-.28-.22-.08-.1-.12-.24-.12-.41,0-.15.04-.28.11-.4.08-.12.18-.21.32-.27.14-.06.3-.09.48-.09.26,0,.47.06.64.19.17.13.26.3.28.52h-.4c-.01-.11-.07-.2-.17-.28-.1-.08-.23-.12-.39-.12-.15,0-.27.04-.37.12-.09.08-.14.19-.14.33,0,.1.03.18.09.25.06.06.13.11.21.14.08.03.2.07.35.11.18.05.33.1.44.15.11.05.21.12.29.23s.12.24.12.41c0,.13-.04.26-.11.38-.07.12-.18.21-.32.29-.14.07-.3.11-.5.11s-.34-.03-.49-.1Z"/>
  </g>
</svg>