<svg xmlns="http://www.w3.org/2000/svg" version="1.1" xmlns:xlink="http://www.w3.org/1999/xlink" width="512" height="512" x="0" y="0" viewBox="0 0 100 100" style="enable-background:new 0 0 512 512" xml:space="preserve" class=""><g><path d="M32.2 77a4.23 4.23 0 0 1-5-4V27a4.2 4.2 0 0 1 4.35-4.15h19.14a.91.91 0 0 0 .85-.85v-8a4.75 4.75 0 0 0-4.78-4.78H14A4.76 4.76 0 0 0 9.25 14v72A4.76 4.76 0 0 0 14 90.74h32.76A4.75 4.75 0 0 0 51.54 86v-3.3a2.13 2.13 0 0 1 4.25 0V86a9 9 0 0 1-9 9H14a9 9 0 0 1-9-9V14a9 9 0 0 1 9-9h32.76a9 9 0 0 1 9 9v8a.91.91 0 0 0 .85.85h34a5.07 5.07 0 0 1 3 1.07A4.36 4.36 0 0 1 95 27v46a4.27 4.27 0 0 1-5.1 4l-5.42-1.38a4.71 4.71 0 0 1-3.19-3l-.1-.11c-.11-.21-.85-2-1-2.34a4.49 4.49 0 0 1 .21-4.47l3.08-5.21a.31.31 0 0 0 0-.42l-3-3a.46.46 0 0 0-.53 0l-5.1 3.08a5.1 5.1 0 0 1-4.47.22A23.5 23.5 0 0 0 68 59.36a4.42 4.42 0 0 1-3-3.3l-1.49-5.85c0-.21-.21-.32-.43-.32H59a.29.29 0 0 0-.32.32l-1.49 5.85a4.65 4.65 0 0 1-3 3.3c-.85.32-1.7.64-2.45 1a4.73 4.73 0 0 1-4.46-.11l-5.21-3.08a.31.31 0 0 0-.42 0l-3 3a.33.33 0 0 0 0 .42l3.09 5.21a4.75 4.75 0 0 1 .26 4.41 22.07 22.07 0 0 0-1.07 2.34 4.6 4.6 0 0 1-3.29 3.09c-1.81.42-3.61 1-5.42 1.38ZM16.37 17.23a2.13 2.13 0 1 1 0-4.25h.74a2.13 2.13 0 0 1 0 4.25Zm8.18 0c-2.76 0-2.76-4.25 0-4.25h11.69c2.76 0 2.76 4.25 0 4.25Zm0 69.37c-2.76 0-2.76-4.26 0-4.26h11.69c2.76 0 2.76 4.26 0 4.26Zm25.93-10a2.14 2.14 0 0 1-2.13-2.13c0-16.81 25.4-16.7 25.4 0a2.14 2.14 0 0 1-2.13 2.13Zm3.61-4.26H68a.94.94 0 0 0 .85-1.28 8.5 8.5 0 0 0-15.51 0 .93.93 0 0 0 .74 1.28Zm36.55-.74V28a.84.84 0 0 0-.85-.85H32.41a.93.93 0 0 0-.95.85v6.28a.86.86 0 0 0 .95.85h48a2.13 2.13 0 1 1 0 4.25h-48a1 1 0 0 0-.95 1V71.6a.81.81 0 0 0 1.06.85l3.83-1A.66.66 0 0 0 37 71a23.65 23.65 0 0 1 1.07-2.45.66.66 0 0 0-.11-.74l-3-5a4.7 4.7 0 0 1 .75-5.81l2.87-2.87a4.69 4.69 0 0 1 5.74-.75l5.2 3.09a.2.2 0 0 0 .32 0c1-.43 1.91-.85 2.87-1.17.21 0 .21-.11.32-.32l1.49-5.85A4.65 4.65 0 0 1 59 45.64h4.14a4.69 4.69 0 0 1 4.57 3.51l1.38 5.64a1 1 0 0 0 .64.64c.74.31 1.59.63 2.34 1a.79.79 0 0 0 .85 0l5-3a4.51 4.51 0 0 1 5.63.75l3 2.87a4.85 4.85 0 0 1 .74 5.75L84.06 68v.32c.42 1 .85 1.91 1.16 2.87.11.21.22.21.32.32l4 1a.81.81 0 0 0 1.06-.85Zm-5-32.24a2.13 2.13 0 1 1 0-4.25h1.59a2.13 2.13 0 0 1 0 4.25Zm-36-6.17a2.18 2.18 0 0 1 0-4.36h1.26c2.77 0 2.77 4.36 0 4.36Zm-13.07 0c-2.76 0-2.76-4.36 0-4.36h1.27a2.18 2.18 0 0 1 0 4.36Zm6.59 0a2.18 2.18 0 0 1 0-4.36h1.27c2.76 0 2.76 4.36 0 4.36Z" data-name="Mobile Optimization" fill="#ffaa14" opacity="1" data-original="#000000" class=""></path></g></svg>