<svg xmlns="http://www.w3.org/2000/svg" version="1.1" xmlns:xlink="http://www.w3.org/1999/xlink" width="512" height="512" x="0" y="0" viewBox="0 0 510 510" style="enable-background:new 0 0 512 512" xml:space="preserve" fill-rule="evenodd" class="hovered-paths"><g><path d="m131.103 451.079 6.034 10.661.011.02c5.235 9.312 1.915 21.194-7.344 26.424l-21.725 12.313a.298.298 0 0 1-.024.014c-9.312 5.235-21.194 1.915-26.426-7.348L17.742 380.276c-5.283-9.32-1.963-21.214 7.308-26.45l21.75-12.313.007-.004c9.267-5.234 21.153-1.945 26.43 7.321l.01.019 4.871 8.606 56.631-32.787c17.18-9.936 34.739-16.399 53.609-10.272 18.282 5.928 48.128 18.708 78.588 24.212.352.064.701.152 1.042.262 15.533 5.029 24.97 20.737 20.729 36.51a34.555 34.555 0 0 1-2.279 6.156c3.072-.928 6.083-2.24 9.046-3.966l77.465-45.117c28.139-16.393 46.902-14.573 57.521-7.449 9.173 6.154 13.429 16.659 13.155 26.974-.277 10.424-5.252 20.378-13.427 25.412l-140.564 86.544c-14.86 9.172-31.137 11.325-47.999 6.827l-.009-.003-98.765-26.469zm-7.9 18.525L59.332 356.745c-.932-1.632-3.022-2.227-4.655-1.305l-21.745 12.31-.007.004c-1.623.916-2.188 3.002-1.264 4.632l.003.005 63.889 112.892.004.005c.92 1.631 3.014 2.197 4.652 1.279l21.706-12.303.01-.006c1.631-.921 2.197-3.015 1.278-4.654zm.019-32.45 14.509-8.378a7.996 7.996 0 0 1 6.071-.799l101.959 27.325c12.457 3.323 24.491 1.792 35.469-4.983l.008-.005 140.571-86.548c3.561-2.193 5.39-6.614 5.763-11.129.575-6.976-2.68-14.691-11.309-16.499-8.157-1.709-19.629 1.034-35.26 10.14l-77.463 45.116c-12.485 7.275-25.57 9.289-39.83 7.019l-9.975-1.631c-17.488-3.59-33.707-8.872-51.705-13.709-4.264-1.146-6.795-5.538-5.649-9.802s5.538-6.796 9.802-5.65c17.562 4.72 33.394 9.896 50.443 13.421 8.473.934 14.69-2.553 16.638-9.813l.001-.004c1.974-7.335-2.628-14.441-9.751-16.978-31.055-5.704-61.45-18.587-80.093-24.632l-.003-.001c-14.389-4.673-27.558 1.328-40.659 8.905l-56.76 32.862zm-71.78-68.685c4.93-.734 9.509 2.671 10.243 7.601.704 4.931-2.7 9.539-7.631 10.244-4.931.733-9.51-2.701-10.243-7.631-.705-4.931 2.7-9.51 7.631-10.214zm150.989-145.023-11.729-5.02c-13.959-5.983-22.02-19.943-20.238-35.006l.001-.01 2.299-19.233.003-.025c.446-3.636-.141-6.848-1.767-10.105l-8.726-17.257c-6.878-13.544-4.081-29.424 7.001-39.827l14.119-13.244.015-.014c2.668-2.491 4.291-5.316 5.114-8.852l.004-.017 4.432-18.86c3.439-14.776 15.79-25.141 30.948-25.99l.006-.001 19.334-1.068c3.647-.201 6.719-1.305 9.61-3.484l.018-.014 15.51-11.624.016-.012c12.173-9.076 28.248-9.076 40.421 0l.016.012 15.505 11.621c2.921 2.185 5.976 3.3 9.633 3.501l19.334 1.068.006.001c15.157.849 27.509 11.214 30.944 25.973l4.436 18.877.004.017c.823 3.536 2.446 6.361 5.114 8.852l.015.014 14.119 13.244c11.082 10.403 13.879 26.283 7.007 39.815l-8.732 17.269c-1.626 3.257-2.213 6.469-1.767 10.105l.003.025 2.299 19.233.001.01c1.782 15.065-6.242 29.025-20.242 35.007l-11.726 5.019 28.446 61.124c1.73 3.656 1.25 7.586-1.144 10.627-2.377 3.157-6.022 4.601-9.959 3.89l-29.197-5.093-14.91 25.602c-1.908 3.346-5.374 5.303-9.313 5.157-3.912-.145-7.153-2.238-8.892-5.86l-.04-.086-27.55-59.172-8.502-2.567-.04-.012c-3.452-1.062-6.705-1.062-10.157 0l-.04.012-8.502 2.567-27.518 59.103c-1.642 3.648-5 5.868-8.964 6.015-3.933.145-7.394-1.804-9.299-5.133l-14.897-25.626-29.226 5.094c-3.95.711-7.603-.744-9.944-3.874-2.411-3.088-2.882-7.006-1.157-10.644zm158.763 8.704c-.116.165-.23.334-.342.505l-10.579 16.176c-6.472 9.906-17.053 15.423-28.287 15.325l17.688 37.99 12.239-21.016a8 8 0 0 1 8.288-3.855l23.937 4.176zm-105.957 32.006c-11.234.098-21.814-5.419-28.285-15.322l-10.581-16.179c-.112-.171-.227-.34-.342-.505l-22.945 49.303 23.972-4.178a8 8 0 0 1 8.29 3.861l12.208 21.001zm44.017-237.549c-6.411-4.777-14.874-4.777-21.285 0L262.475 38.22c-5.524 4.16-11.384 6.29-18.348 6.672l-19.325 1.069c-7.961.446-14.454 5.882-16.26 13.642l-.004.016-4.435 18.876c-1.574 6.748-4.674 12.139-9.765 16.895l-14.113 13.239c-5.82 5.464-7.297 13.803-3.685 20.917l.007.012 8.742 17.291.016.032c3.094 6.188 4.19 12.294 3.345 19.201l-2.297 19.219c-.937 7.926 3.307 15.27 10.652 18.418l17.765 7.605c6.402 2.717 11.159 6.739 14.976 12.549l.009.014 10.59 16.193c4.375 6.696 12.323 9.568 19.979 7.27l18.529-5.594c6.633-2.036 12.884-2.036 19.517 0l18.529 5.594c7.656 2.298 15.604-.574 19.979-7.27l10.59-16.193.009-.014c3.817-5.81 8.574-9.832 14.976-12.549l17.768-7.606.005-.002c7.365-3.147 11.58-10.492 10.644-18.415l-2.297-19.219c-.845-6.907.251-13.013 3.345-19.201l.016-.032 8.742-17.291.007-.012c3.612-7.114 2.135-15.453-3.685-20.917L382.885 95.39c-5.091-4.756-8.192-10.147-9.765-16.895l-4.435-18.876-.004-.016c-1.806-7.76-8.299-13.196-16.26-13.642l-19.322-1.068c-6.963-.383-12.779-2.505-18.341-6.666l-.006-.004zm-10.622 201.836c-51.151 0-92.88-41.729-92.88-92.879s41.729-92.879 92.88-92.879c51.107 0 92.839 41.728 92.839 92.879s-41.732 92.879-92.839 92.879zm0-16c42.301 0 76.839-34.541 76.839-76.879s-34.538-76.879-76.839-76.879c-42.339 0-76.88 34.54-76.88 76.879s34.541 76.879 76.88 76.879zM267.295 109.13l8.57-26.377a13.401 13.401 0 0 1 12.746-9.26 13.402 13.402 0 0 1 12.747 9.26l8.57 26.377h27.734a13.402 13.402 0 0 1 7.878 24.245l-22.437 16.302 8.57 26.377a13.402 13.402 0 0 1-20.624 14.984l-22.438-16.302-22.437 16.302a13.401 13.401 0 0 1-20.624-14.984l8.57-26.377-22.437-16.302a13.402 13.402 0 0 1 7.878-24.245zm-19.74 16 17.497 12.712a13.401 13.401 0 0 1 4.868 14.984l-6.683 20.569 17.497-12.712a13.401 13.401 0 0 1 15.755 0l17.497 12.712-6.683-20.569a13.401 13.401 0 0 1 4.868-14.984l17.497-12.712h-21.627a13.402 13.402 0 0 1-12.746-9.261l-6.684-20.568-6.683 20.568a13.402 13.402 0 0 1-12.746 9.261zM128.673 49.277a53.324 53.324 0 0 0 28.859 28.859 8 8 0 0 1 0 14.788 53.327 53.327 0 0 0-28.859 28.859 8.002 8.002 0 0 1-14.788 0 53.33 53.33 0 0 0-28.859-28.859 8 8 0 0 1 0-14.788 53.327 53.327 0 0 0 28.859-28.859 7.999 7.999 0 0 1 14.788 0zm-7.394 19.538a69.516 69.516 0 0 1-16.715 16.715 69.552 69.552 0 0 1 16.715 16.715 69.534 69.534 0 0 1 16.715-16.715 69.516 69.516 0 0 1-16.715-16.715zm339.695 88.204a53.324 53.324 0 0 0 28.859 28.859 8 8 0 0 1 0 14.788 53.327 53.327 0 0 0-28.859 28.859 8.002 8.002 0 0 1-14.788 0 53.333 53.333 0 0 0-28.859-28.859 8 8 0 0 1 0-14.788 53.33 53.33 0 0 0 28.859-28.859 7.999 7.999 0 0 1 14.788 0zm-7.394 19.538a69.516 69.516 0 0 1-16.715 16.715 69.57 69.57 0 0 1 16.715 16.715 69.534 69.534 0 0 1 16.715-16.715 69.498 69.498 0 0 1-16.715-16.715zm7.394-127.28a53.324 53.324 0 0 0 28.859 28.859 8 8 0 0 1 0 14.788 53.327 53.327 0 0 0-28.859 28.859 8.002 8.002 0 0 1-14.788 0 53.333 53.333 0 0 0-28.859-28.859 8 8 0 0 1 0-14.788 53.33 53.33 0 0 0 28.859-28.859 7.999 7.999 0 0 1 14.788 0zm-7.394 19.538a69.516 69.516 0 0 1-16.715 16.715 69.57 69.57 0 0 1 16.715 16.715 69.534 69.534 0 0 1 16.715-16.715 69.498 69.498 0 0 1-16.715-16.715zM140.758 209.977a53.328 53.328 0 0 0 28.858 28.859 7.998 7.998 0 0 1 0 14.788 53.325 53.325 0 0 0-28.858 28.859 8 8 0 0 1-14.788 0 53.33 53.33 0 0 0-28.859-28.859 8 8 0 0 1 0-14.788 53.333 53.333 0 0 0 28.859-28.859 8 8 0 0 1 14.788 0zm-7.394 19.538a69.57 69.57 0 0 1-16.715 16.715 69.552 69.552 0 0 1 16.715 16.715 69.498 69.498 0 0 1 16.715-16.715 69.516 69.516 0 0 1-16.715-16.715z" fill="#ffaa14" opacity="1" data-original="#000000" class="hovered-path"></path></g></svg>