<svg xmlns="http://www.w3.org/2000/svg" version="1.1" xmlns:xlink="http://www.w3.org/1999/xlink" width="512" height="512" x="0" y="0" viewBox="0 0 16.933 16.933" style="enable-background:new 0 0 512 512" xml:space="preserve" class=""><g><path d="M1.322.528a.798.798 0 0 0-.792.795V15.61c0 .435.357.793.792.793h10.055a.797.797 0 0 0 .793-.793v-1.322c0-.353-.53-.353-.53 0v1.322a.257.257 0 0 1-.263.264H1.322a.257.257 0 0 1-.263-.264V1.323c0-.151.112-.266.263-.266h8.204v1.324c0 .436.358.794.793.794h1.322v5.29c0 .353.53.353.53 0V2.911a.265.265 0 0 0-.077-.187L9.977.606a.265.265 0 0 0-.188-.078zm8.733.905 1.211 1.212h-.947a.257.257 0 0 1-.264-.264zM4.233 2.645c-.36-.008-.36.537 0 .53h3.969c.36.008.36-.537 0-.53zM2.38 4.762h5.82c.361.008.361-.537 0-.529H2.37c-.358.024-.333.538.012.53zm6.879 0h1.059c.36.008.36-.537 0-.529H9.247c-.357.024-.333.538.013.53zM2.38 6.35h7.938c.36.008.36-.537 0-.529h-7.95c-.358.024-.333.538.012.53zm12.824.53c-.307 0-.614.116-.847.35l-5.286 5.283a.265.265 0 0 0-.066.115l-.529 1.851a.265.265 0 0 0 .326.326l1.854-.529a.265.265 0 0 0 .113-.066l5.285-5.284a1.198 1.198 0 0 0-.85-2.046zm0 .523a.67.67 0 0 1 .475.2.664.664 0 0 1 0 .949l-.202.202-.95-.95.203-.202a.668.668 0 0 1 .474-.2zM2.37 7.409c-.338.04-.315.518.012.527H3.44c.362.032.393-.52.014-.528zm2.13.527h5.82c.363.032.393-.52.029-.528H4.485c-.34.042-.314.521.013.528zm9.656.242.288.288-4.52 4.52-.288-.286zm.662.662.287.288-4.52 4.52-.287-.287zM2.38 8.995c-.36-.008-.36.537 0 .529h7.938c.36.008.36-.537 0-.53zm0 1.588c-.36-.008-.36.537 0 .529h4.762c.36.008.36-.537 0-.53zm5.82 0c-.36-.008-.36.537 0 .529H9.26c.36.008.36-.537 0-.53zm-5.82 2.116h5.29c.361.008.361-.536 0-.529H2.37c-.358.024-.333.538.012.53zm7.01.506.688.687-.962.275zm-7.01 1.082H3.44c.36.008.36-.536 0-.529H2.369c-.358.024-.333.538.012.53zm2.117 0h2.645c.36.008.36-.536 0-.529H4.485c-.359.026-.332.54.013.53z" fill="#ffaa14" opacity="1" data-original="#000000" class=""></path></g></svg>